<svg width="443" height="36" viewBox="0 0 443 36" fill="none" xmlns="http://www.w3.org/2000/svg">
<g clip-path="url(#clip0_2_9)">
<path d="M0 36.4097V22.4044H6.96488L9.40234 22.4825H29.388L31.7071 22.4044H40.7166V36.4097H32.0999V30.5074H8.61671V36.4097H0ZM6.01307 1.00616H35.6428V28.148H26.4746V4.86127L30.6067 8.95056H10.898L14.6348 5.89115C14.8645 6.96871 15.0026 8.06376 15.0478 9.16459C15.0881 10.2155 15.1082 11.1992 15.1082 12.1157C15.1082 15.1374 14.8321 17.6554 14.2798 19.6698C13.7275 21.6843 12.8881 23.1951 11.7617 24.2023C10.6337 25.2095 9.23027 25.7131 7.55158 25.7131L3.74684 22.563C4.71712 21.3577 5.44483 19.7311 5.92997 17.6831C6.41511 15.6351 6.65516 13.1313 6.65013 10.1718C6.65013 8.78185 6.59725 7.32559 6.49149 5.80302C6.38573 4.28044 6.22626 2.6815 6.01307 1.00616Z" fill="#35ADE1"/>
<path d="M41.7694 30.5075L53.375 11.2723L60.1007 16.6608L52.1563 30.51L41.7694 30.5075ZM74.0657 22.198L71.588 21.3318L87.3232 0.996155H96.9622L72.9326 30.5075H66.2069L42.2101 1.00623H51.8088L67.5843 21.3419L65.0663 22.2081V1.00623H74.0733L74.0657 22.198ZM86.9706 30.5075L79.064 16.6583L85.7494 11.2697L97.355 30.505L86.9706 30.5075Z" fill="#35ADE1"/>
<path d="M114.083 31.1759C110.542 31.1759 107.441 30.5338 104.778 29.2496C102.241 28.0718 100.087 26.2035 98.5614 23.8585C97.0808 21.552 96.3405 18.851 96.3405 15.7555C96.3405 12.66 97.0808 9.95895 98.5614 7.65243C100.087 5.30739 102.241 3.43909 104.778 2.26132C107.439 0.977119 110.54 0.335022 114.083 0.335022C117.625 0.335022 120.725 0.977119 123.384 2.26132C125.921 3.43909 128.076 5.30739 129.601 7.65243C131.082 9.95895 131.822 12.66 131.822 15.7555C131.822 18.851 131.082 21.552 129.601 23.8585C128.076 26.2035 125.921 28.0718 123.384 29.2496C120.722 30.5338 117.621 31.1759 114.083 31.1759ZM114.083 23.0326C115.64 23.0703 117.186 22.7687 118.615 22.1487C119.819 21.6162 120.838 20.7403 121.546 19.6307C122.216 18.4491 122.568 17.1139 122.568 15.7555C122.568 14.397 122.216 13.0619 121.546 11.8802C120.838 10.7707 119.819 9.89472 118.615 9.36217C115.7 8.18374 112.442 8.18374 109.527 9.36217C108.324 9.89472 107.304 10.7707 106.596 11.8802C105.926 13.0619 105.574 14.397 105.574 15.7555C105.574 17.1139 105.926 18.4491 106.596 19.6307C107.304 20.7403 108.324 21.6162 109.527 22.1487C110.963 22.7719 112.518 23.0735 114.083 23.0326Z" fill="#35ADE1"/>
<path d="M135.718 1.00592H144.883V30.5072H135.718V1.00592ZM140.87 11.4306H162.384V19.5336H140.87V11.4306ZM158.69 1.00592H167.855V30.5072H158.69V1.00592Z" fill="#35ADE1"/>
<path d="M172.959 1.00592H182.125V30.5072H172.959V1.00592ZM178.124 11.4306H199.65V19.5336H178.124V11.4306ZM195.944 1.00592H205.109V30.5072H195.944V1.00592Z" fill="#35ADE1"/>
<path d="M210.228 30.5072V1.00592H219.278V25.592L216.838 25.0405L232.298 1.00592H244.256V30.5072H235.209V5.37219L237.609 5.92112L221.833 30.5072H210.228Z" fill="#35ADE1"/>
</g>
<g clip-path="url(#clip1_2_9)">
<path d="M262.228 0.260864H293.268V8.40166H262.228V0.260864ZM273.164 4.2318H282.342V29.7621H273.164V4.2318Z" fill="#35ADE1"/>
<path d="M308.921 25.9874L294.13 0.260681H304.202L315.453 20.0071L308.921 25.9874ZM303.651 29.7645L309.117 20.1683H309.236L320.486 0.263194H330.362L313.524 29.762L303.651 29.7645Z" fill="#35ADE1"/>
<path d="M332.879 0.260864H342.044V29.7621H332.879V0.260864ZM338.033 10.683H359.55V18.7886H338.033V10.683ZM355.853 0.260864H365.019V29.7621H355.853V0.260864Z" fill="#35ADE1"/>
<path d="M380.242 15.0121L378.394 26.4314L374.814 22.4579H397.274V29.7728H369.307L371.51 15.0222L369.307 0.271545H397.078V7.58644H374.814L378.394 3.61298L380.242 15.0121ZM395.905 11.7865V18.2377H373.998V11.7865H395.905Z" fill="#35ADE1"/>
<path d="M433.389 0.260681V24.6856L430.045 21.664H438.46V35.6693H429.899V27.9918L432.102 29.7544H401.722V0.260681H410.888V24.6856L407.866 21.664H427.575L424.231 24.6856V0.260681H433.389Z" fill="#35ADE1"/>
</g>
<defs>
<clipPath id="clip0_2_9">
<rect width="244.247" height="35.9627" fill="white" transform="translate(0 0.0186157)"/>
</clipPath>
<clipPath id="clip1_2_9">
<rect width="179.814" height="35.9627" fill="white" transform="translate(262.228 0.0186157)"/>
</clipPath>
</defs>
</svg>
